<svg id="Layer_3" data-name="Layer 3" xmlns="http://www.w3.org/2000/svg" xmlns:xlink="http://www.w3.org/1999/xlink" viewBox="0 0 748.12 180"><defs><style>.cls-1{fill:url(#linear-gradient);}</style><linearGradient id="linear-gradient" x1="137.94" y1="512" x2="886.06" y2="512" gradientUnits="userSpaceOnUse"><stop offset="0" stop-color="#00cdd6"/><stop offset="1" stop-color="#0a64c4"/></linearGradient></defs><title>logo</title><path class="cls-1" d="M413,422.36a7.28,7.28,0,0,1-.88,1.79,139.19,139.19,0,0,0-20.21,29.74,298.36,298.36,0,0,0-16.09,38.16c-3.54,10-7,20-10.68,30-3.6,9.68-7.27,19.34-11.31,28.83-5.23,12.29-11.91,23.78-21.24,33.45-9.76,10.12-21.64,16.16-35.79,17.43-13.6,1.22-26.3-1.71-38.54-7.64-14-6.8-26.66-15.8-39.61-24.34-9.61-6.35-19.26-12.67-29.14-18.59a67.24,67.24,0,0,0-22.09-8.81c-8.71-1.64-16.86-.1-23.81,5.82-1.49,1.26-2.79,2.73-4.24,4a4.6,4.6,0,0,1-1.41.59c0-.55-.16-1.22.1-1.63,4.28-6.77,9.92-11.84,17.82-14,7.11-2,14.22-1.64,21.35-.16,12.1,2.51,23.22,7.52,34,13.4,13.42,7.35,26.61,15.1,40.13,22.25a157.27,157.27,0,0,0,22,9.69,47,47,0,0,0,30.48.36,39.29,39.29,0,0,0,13.95-8.35A77.72,77.72,0,0,0,332,556.77c7.44-12.13,13-25.15,18.78-38.12q8.08-18.28,16.51-36.41A202.24,202.24,0,0,1,389,445.71a118,118,0,0,1,22.26-23,13,13,0,0,1,1.2-.71Zm-56.9,142.81a9,9,0,0,0,1.35-.78,88.28,88.28,0,0,1,25-14.38c1.67-.63,2.36-.33,2.9,1.36,1.38,4.32,2.79,8.63,4.42,12.85A65.78,65.78,0,0,0,407,589.63c6.36,5.76,13.27,10.3,22,11.79,9.26,1.57,19.12-3,23.11-11.53,4.43-9.42,3.88-19-.48-28.14C445.41,548.67,435.3,539.63,421,536a48.12,48.12,0,0,0-22.79-.07c-1.65.36-2.56,0-2.91-1.66-1.08-5.25-2.51-10.46-3.19-15.76-.81-6.36-1.14-12.79-1.41-19.2-.39-9.37,0-18.72,2.28-27.9a30.77,30.77,0,0,0,.49-3.87l-.68-.19c-.46.82-1,1.6-1.38,2.45-2.95,6.5-5.54,13.16-6.66,20.24-1.25,7.91-2.44,15.86-3.15,23.84-.75,8.37.19,16.75,1.19,25.09a3,3,0,0,1-1.8,3.37,78.83,78.83,0,0,0-24.43,20.76,13.94,13.94,0,0,0-1,1.63Zm80.22,1.45a18.42,18.42,0,0,1,2,12c-1.07,6.06-4.89,7.1-9.9,5-7.47-3.17-13.25-8.67-18.14-15.11a81.66,81.66,0,0,1-10.53-19.66c-.71-1.77,0-2.82,1.89-3,.63-.06,1.26,0,1.89,0C418.69,546.05,429.4,553.48,436.34,566.62ZM181,532a17.84,17.84,0,0,0,2.41.16,52.73,52.73,0,0,1,16.22,1.65c9.28,2.39,17.79,6.6,26,11.47,11,6.54,21.88,13.26,33,19.53a67.62,67.62,0,0,0,24.43,8.37,39.59,39.59,0,0,0,24.21-4c8.41-4.38,14.29-11.32,19.28-19.13.28-.44.15-1.13.22-1.7a6,6,0,0,0-1.81.5c-3.48,2.45-6.79,5.17-10.39,7.43a36.2,36.2,0,0,1-31.95,4c-8.28-2.71-15.78-7.08-23.36-11.27-8.61-4.77-17.16-9.69-26-13.93a78.12,78.12,0,0,0-28.71-7.91,55.87,55.87,0,0,0-22.24,3,6.28,6.28,0,0,0-1.51,1.16Zm337.88,67.7a19,19,0,0,1-6.58.42A75.1,75.1,0,0,1,494,597.18a46.44,46.44,0,0,1-19-10.67,39.13,39.13,0,0,1-10.51-17.64,56.85,56.85,0,0,1-2.17-18.49,112.16,112.16,0,0,1,4-24.61,173,173,0,0,1,7.2-21.21c2.92-7,6-14,9.06-21,3.95-9.17,7.6-18.42,9.66-28.12a68.55,68.55,0,0,0,1.64-17.76A64.86,64.86,0,0,0,491.47,423a1.27,1.27,0,0,1-.06-1,6.6,6.6,0,0,1,1.41,1.84,60.61,60.61,0,0,1,7.11,18.88,84.51,84.51,0,0,1,1.25,22.78c-.58,8.69-3.11,17-5.28,25.42-2.24,8.64-4.83,17.21-7.15,25.83a132.22,132.22,0,0,0-4.62,25.35,93.3,93.3,0,0,0,1.32,25.62,38.1,38.1,0,0,0,13.66,22.16,49.43,49.43,0,0,0,18.58,9.48Zm47.25,1.47a49.46,49.46,0,0,1-18.57-9.48,38.12,38.12,0,0,1-13.67-22.16,93.69,93.69,0,0,1-1.31-25.62,133,133,0,0,1,4.61-25.35c2.32-8.62,4.92-17.19,7.16-25.83,2.17-8.4,4.7-16.73,5.28-25.42a84.49,84.49,0,0,0-1.25-22.78,60.86,60.86,0,0,0-7.11-18.88,6.32,6.32,0,0,0-1.42-1.84,1.26,1.26,0,0,0,.07,1,64.77,64.77,0,0,1,2.37,14.73,69,69,0,0,1-1.64,17.76c-2.06,9.69-5.71,18.95-9.66,28.11-3,7-6.15,14-9.07,21a175.14,175.14,0,0,0-7.19,21.2,112.35,112.35,0,0,0-4,24.61,56.91,56.91,0,0,0,2.17,18.5,39.18,39.18,0,0,0,10.51,17.64A46.44,46.44,0,0,0,542.46,599a74.94,74.94,0,0,0,18.26,2.93,19,19,0,0,0,6.59-.42ZM622,576.53q0,5.73-10.14,13.81t-20.92,8.09q-9,0-13.95-5.34t-4.91-14.88q0-16.05,10.84-30.55t23.69-14.48a9.26,9.26,0,0,1,9.55,9.37q0,8.66-8.48,16.57T585,574.67c-1.94,1-2.92,2.33-2.92,3.93a10.32,10.32,0,0,0,2.7,7.47c1.79,1.88,4.45,2.81,8,2.81q12.07,0,24.65-13.36c1.24-1.24,2.17-1.86,2.81-1.86C621.38,573.66,622,574.62,622,576.53Zm-39-8.76q23.81-14.16,23.81-22.74,0-3.37-3-3.37-5.18,0-11.65,7.58A43.68,43.68,0,0,0,583,567.77Zm61.54,28.47q.12-3.25-4.77-16.85-9.27-25.32-9.26-35.26,0-7.92,5.27-7.92t5.17,7.07a82.88,82.88,0,0,0,.36,8.9,93.66,93.66,0,0,0,2.67,11.4q2.31,8.29,5.06,15.36,1.39,3.7,2,5.67,1.17-1.79,3-4.94,9.88-16.62,15.75-25.6A113.14,113.14,0,0,1,679.36,541c2.48-2.73,4.29-4.37,5.45-4.91a8.31,8.31,0,0,1,3.54-.81,4.17,4.17,0,0,1,3.45,1.57,5.59,5.59,0,0,1,1.27,3.59q0,2.64-4.61,5.73-4.32,2.93-12.75,14.65a279,279,0,0,0-18.19,29.93q-5,9.21-7.69,9.21Q647.47,599.94,644.49,596.24Zm62.73-13.14a44.74,44.74,0,0,0,1.18,9.6,8.61,8.61,0,0,1,.22,1.68c0,.68-.62,1.55-1.85,2.61a5.93,5.93,0,0,1-3.93,1.6q-5.46,0-5.45-10,0-10.33,4.27-32.68a79.17,79.17,0,0,0,1.46-9.6,13,13,0,0,1,1.29-6,4,4,0,0,1,3.65-2.5,6.86,6.86,0,0,1,4.52,1.38,4,4,0,0,1,1.66,3.06,17.2,17.2,0,0,1-.79,4.43,207.48,207.48,0,0,0-5.22,21.23A98.35,98.35,0,0,0,707.22,583.1Zm7.35-62.73q-1.17,0-1.8-2.52a14.11,14.11,0,0,0-.61-1.74,17,17,0,0,1-1.52-6.35c0-1.49.89-3,2.67-4.57a8.76,8.76,0,0,1,5.92-2.33,7.07,7.07,0,0,1,3.65,1.26c1.35.84,2,1.66,2,2.44a24.79,24.79,0,0,1-1.37,6.29q-1.38,4.44-4.38,6A11.27,11.27,0,0,1,714.57,520.37Zm53,54.75Q759.72,585.68,752,591t-14.1,5.28a9.59,9.59,0,0,1-7.47-3.65,13.9,13.9,0,0,1-3.14-9.38q0-14.78,13.19-31.81t26.23-17q4.71,0,7,5.39a2.42,2.42,0,0,0,2.3,1.79q4.49,0,4.49,3.49a28.26,28.26,0,0,1-.56,4.77q-3,16.56-3,23.36,0,13.59,5.16,16.28c1.65.9,2.47,2,2.47,3.32,0,1.16-.8,2.33-2.41,3.5a7.94,7.94,0,0,1-4.66,1.77q-4.32,0-7.13-5.95T767.58,575.12Zm-3.43-31.61q-7.41,0-17.23,13.9t-9.83,23.05c0,4.3,1.42,6.46,4.27,6.46q6.17,0,17.12-12.47t10.95-22.91Q769.43,543.52,764.15,543.51ZM808,583.1a45.39,45.39,0,0,0,1.18,9.6,8,8,0,0,1,.23,1.68q0,1-1.86,2.61a5.89,5.89,0,0,1-3.93,1.6q-5.45,0-5.44-10,0-10.33,4.26-32.68a77,77,0,0,0,1.46-9.6,12.92,12.92,0,0,1,1.3-6,4,4,0,0,1,3.64-2.5,6.87,6.87,0,0,1,4.53,1.38,4,4,0,0,1,1.65,3.06,17.11,17.11,0,0,1-.78,4.43A211.07,211.07,0,0,0,809,567.88,99.61,99.61,0,0,0,808,583.1Zm7.36-62.73q-1.18,0-1.8-2.52a14.28,14.28,0,0,0-.62-1.74,17,17,0,0,1-1.51-6.35c0-1.49.89-3,2.67-4.57a8.74,8.74,0,0,1,5.92-2.33,7.1,7.1,0,0,1,3.65,1.26c1.35.84,2,1.66,2,2.44a25.26,25.26,0,0,1-1.37,6.29q-1.38,4.44-4.38,6A11.32,11.32,0,0,1,815.31,520.37Zm26.5,52.9a30.85,30.85,0,0,0,1.35-2.81,101.22,101.22,0,0,1,7-13.73,89.89,89.89,0,0,1,7.05-9.51,43.45,43.45,0,0,1,7-6.91A23.11,23.11,0,0,1,870,537a15,15,0,0,1,5-.92,11,11,0,0,1,8,2.95,9.2,9.2,0,0,1,3.09,6.87,5,5,0,0,1-1.09,3.15,4,4,0,0,1-3.34,1.4,5.86,5.86,0,0,1-4.33-2.08,5.91,5.91,0,0,0-4.21-2.07q-5.83,0-16.17,14.15a67,67,0,0,0-12.58,31.16q-.57,4.38-2.13,5.79a6.48,6.48,0,0,1-4.44,1.4q-2.74,0-4-4.1t-1.23-13.81q0-2.64.28-11.63a144.15,144.15,0,0,1,1.35-17.12c.11-.71.3-2.38.56-5a28.78,28.78,0,0,1,1-6,7.14,7.14,0,0,1,2.41-3.14,6.19,6.19,0,0,1,4-1.46,3.72,3.72,0,0,1,3.12,1.32,4.5,4.5,0,0,1,1,2.83,25,25,0,0,1-1.12,6.18,49.16,49.16,0,0,0-1.52,6.12,32.11,32.11,0,0,1-.62,4,106.44,106.44,0,0,0-1.12,12.69l-.06,2.07Z" transform="translate(-137.94 -422)"/></svg>